<?xml version="1.0" encoding="UTF-8"?>
<svg width="28px" height="18px" viewBox="0 0 28 18" version="1.1" xmlns="http://www.w3.org/2000/svg" xmlns:xlink="http://www.w3.org/1999/xlink">
    <!-- Generator: Sketch 46.2 (44496) - http://www.bohemiancoding.com/sketch -->
    <title>Envelope</title>
    <desc>Created with Sketch.</desc>
    <defs></defs>
    <g id="CARSFORU" stroke="none" stroke-width="1" fill="none" fill-rule="evenodd">
        <g id="login" transform="translate(-81.000000, -635.000000)" fill-rule="nonzero" fill="#7993FB">
            <g id="email-field" transform="translate(81.000000, 623.000000)">
                <path d="M25.9999995,28 L26,15 L3,15 L3,28 L25.9999995,28 L25.9999995,28 Z M0,13.2800856 C0,12.5731139 0.584819794,12 1.30362764,12 L26.6963724,12 C27.416346,12 28,12.5785055 28,13.2800856 L28,28.7199144 C28,29.4268861 27.4151802,30 26.6963724,30 L1.30362764,30 C0.583653973,30 0,29.4214945 0,28.7199144 L0,13.2800856 L0,13.2800856 Z M5,15.0074525 L13.4954733,22 L22,15 L5,15.0074525 L5,15.0074525 Z M17.2445526,21.6500784 L16.1585849,22.5016783 C15.4390566,23.0659218 15.0147914,23.3986244 15.0147914,23.3986244 C14.4543376,23.838124 13.5428717,23.8359356 12.981251,23.3955208 C12.981251,23.3955208 12.6156856,23.1088498 11.9235284,22.5660703 L10.7377785,21.6362228 L10.7377785,21.6362228 L10.1505413,22.2696698 L3.64096011,29.2914917 L2.98413739,30 L1.53912739,28.7118031 L2.19595011,28.0032948 L8.70553132,20.981473 L9.20954169,20.4378019 L1,14 L27,14 L18.7727895,20.4516575 L19.263955,20.981473 L25.7735362,28.0032948 L26.430359,28.7118031 L24.985349,30 L24.3285262,29.2914917 L17.818945,22.2696698 L17.2445526,21.6500784 L17.2445526,21.6500784 Z" id="Envelope"></path>
            </g>
        </g>
    </g>
</svg>