<?xml version="1.0" encoding="UTF-8"?>
<svg width="20px" height="24px" viewBox="0 0 20 24" version="1.1" xmlns="http://www.w3.org/2000/svg" xmlns:xlink="http://www.w3.org/1999/xlink">
    <!-- Generator: Sketch 46.2 (44496) - http://www.bohemiancoding.com/sketch -->
    <title>Locked</title>
    <desc>Created with Sketch.</desc>
    <defs></defs>
    <g id="CARSFORU" stroke="none" stroke-width="1" fill="none" fill-rule="evenodd">
        <g id="login" transform="translate(-81.000000, -759.000000)" fill-rule="nonzero" fill="#7993FB">
            <g id="password-field" transform="translate(81.000000, 754.000000)">
                <path d="M2.42417064,26.6 L17.5758298,26.6 L17.5758298,17.6 L2.42417064,17.6 L2.42417064,26.6 Z M0,16.4005185 C0,15.7374905 0.545324199,15.2 1.20604958,15.2 L18.7939504,15.2 C19.4600332,15.2 20,15.7409764 20,16.4005185 L20,27.7994815 C20,28.4625095 19.4546758,29 18.7939504,29 L1.20604958,29 C0.539966791,29 0,28.4590236 0,27.7994815 L0,16.4005185 L0,16.4005185 Z M16.9691948,15.2 L14.5450241,15.2 L14.5450241,11.8 C14.5450241,9.37785314 12.5178728,7.4 9.99970408,7.4 C7.48153538,7.4 5.45438404,9.37785314 5.45438404,11.8 L5.45438404,15.2 L3.03021336,15.2 L16.9691948,15.2 Z M3.03021336,11.8 C3.03021336,8.0444637 6.15056064,5 9.99970408,5 C13.8488475,5 16.9691948,8.0444637 16.9691948,11.8 L16.9691948,15.7975098 L3.03021336,15.7975098 L3.03021336,11.8 Z" id="Locked"></path>
            </g>
        </g>
    </g>
</svg>